<svg xmlns="http://www.w3.org/2000/svg" viewBox="0 0 1600 1000">
  <defs>
    <linearGradient id="bg" x1="0" y1="0" x2="1" y2="1">
      <stop offset="0%" stop-color="#152033"/>
      <stop offset="55%" stop-color="#0e131d"/>
      <stop offset="100%" stop-color="#1f2b42"/>
    </linearGradient>
    <linearGradient id="hero" x1="0" y1="0" x2="1" y2="1">
      <stop offset="0%" stop-color="#4b8cff"/>
      <stop offset="100%" stop-color="#ff8a4c"/>
    </linearGradient>
  </defs>
  <rect width="1600" height="1000" rx="48" fill="url(#bg)"/>
  <rect x="58" y="54" width="1484" height="78" rx="24" fill="#0d1420" stroke="#2f3950"/>
  <rect x="58" y="170" width="960" height="278" rx="32" fill="#121a26" stroke="#303a4e"/>
  <rect x="92" y="206" width="400" height="24" rx="12" fill="url(#hero)"/>
  <rect x="92" y="252" width="540" height="30" rx="15" fill="#f3ead7" opacity="0.95"/>
  <rect x="92" y="302" width="620" height="18" rx="9" fill="#9ca7bd" opacity="0.6"/>
  <rect x="92" y="338" width="520" height="18" rx="9" fill="#9ca7bd" opacity="0.4"/>
  <rect x="1062" y="170" width="480" height="278" rx="32" fill="#131b29" stroke="#303a4e"/>
  <rect x="1100" y="208" width="220" height="22" rx="11" fill="#f3ead7"/>
  <rect x="1100" y="256" width="300" height="56" rx="18" fill="#ffcf72"/>
  <rect x="1100" y="332" width="300" height="56" rx="18" fill="#283244"/>
  <rect x="58" y="492" width="1484" height="410" rx="32" fill="#111924" stroke="#2f3950"/>
  <rect x="92" y="530" width="320" height="296" rx="24" fill="#161f2e"/>
  <rect x="436" y="530" width="320" height="296" rx="24" fill="#161f2e"/>
  <rect x="780" y="530" width="320" height="296" rx="24" fill="#161f2e"/>
  <rect x="1124" y="530" width="380" height="296" rx="24" fill="#161f2e"/>
  <text x="800" y="950" text-anchor="middle" fill="#c8bfaf" font-family="Segoe UI, sans-serif" font-size="42" font-weight="700">Substitua por um print real da tela principal</text>
</svg>
